<?xml version="1.0" encoding="UTF-8"?><svg id="search" xmlns="http://www.w3.org/2000/svg" viewBox="0 0 431.67 424.33"><circle cx="139" cy="139" r="129" fill="none" stroke="#231f20" stroke-linecap="round" stroke-miterlimit="10" stroke-width="20"/><line x1="234" y1="227.33" x2="264.33" y2="257.67" fill="none" stroke="#231f20" stroke-linecap="round" stroke-miterlimit="10" stroke-width="15"/><line x1="264.67" y1="257.33" x2="416.67" y2="409.33" fill="none" stroke="#231f20" stroke-linecap="round" stroke-miterlimit="10" stroke-width="30"/><path d="M38.58,104.14c-5.63,15.89-6.8,34.28-2.57,50.65,3.7,14.32,10.84,29.81,23.78,37.92,7.66,4.8,14.69-7.31,7.07-12.09-10.03-6.29-14.98-19.76-17.65-30.74-3.32-13.69-1.82-28.83,2.86-42.02,3.02-8.51-10.51-12.17-13.5-3.72h0Z" fill="#231f20" stroke-width="0"/><path d="M229.05,137.95c4.54,8.58,1.76,20.69-2.67,28.77-4.03,7.34,7.2,13.91,11.23,6.56,6.78-12.37,9.49-29,2.67-41.89-3.91-7.4-15.14-.84-11.23,6.56h0Z" fill="#231f20" stroke-width="0"/></svg>